<svg id="visual" viewBox="0 0 1400 450" width="1400" height="450" xmlns="http://www.w3.org/2000/svg" xmlns:xlink="http://www.w3.org/1999/xlink" version="1.1"><rect x="0" y="0" width="1400" height="450" fill="#FFFFFF"></rect><defs><linearGradient id="grad1_0" x1="67.9%" y1="0%" x2="100%" y2="100%"><stop offset="-12.222222222222225%" stop-color="#ffffff" stop-opacity="1"></stop><stop offset="112.22222222222221%" stop-color="#ffffff" stop-opacity="1"></stop></linearGradient></defs><defs><linearGradient id="grad2_0" x1="0%" y1="0%" x2="32.1%" y2="100%"><stop offset="-12.222222222222225%" stop-color="#ffffff" stop-opacity="1"></stop><stop offset="112.22222222222221%" stop-color="#ffffff" stop-opacity="1"></stop></linearGradient></defs><g transform="translate(1400, 0)"><path d="M0 405C-59.8 406.5 -119.5 408 -155 374.2C-190.4 340.4 -201.6 271.3 -229.1 229.1C-256.6 186.9 -300.5 171.5 -332.6 137.8C-364.6 104.1 -384.8 52 -405 0L0 0Z" fill="#D1E4FD"></path></g><g transform="translate(0, 450)"><path d="M0 -405C37.3 -364.5 74.6 -324 129 -311.3C183.3 -298.7 254.7 -313.9 286.4 -286.4C318.1 -258.9 310.2 -188.8 323.4 -133.9C336.5 -79.1 370.8 -39.6 405 0L0 0Z" fill="#D1E4FD"></path></g></svg>