<svg id="visual" viewBox="0 0 1400 450" width="1400" height="450" xmlns="http://www.w3.org/2000/svg" xmlns:xlink="http://www.w3.org/1999/xlink" version="1.1"><rect x="0" y="0" width="1400" height="450" fill="#FFFFFF"></rect><defs><linearGradient id="grad1_0" x1="67.9%" y1="0%" x2="100%" y2="100%"><stop offset="-12.222222222222225%" stop-color="#ffffff" stop-opacity="1"></stop><stop offset="112.22222222222221%" stop-color="#ffffff" stop-opacity="1"></stop></linearGradient></defs><defs><linearGradient id="grad2_0" x1="0%" y1="0%" x2="32.1%" y2="100%"><stop offset="-12.222222222222225%" stop-color="#ffffff" stop-opacity="1"></stop><stop offset="112.22222222222221%" stop-color="#ffffff" stop-opacity="1"></stop></linearGradient></defs><g transform="translate(1400, 0)"><path d="M0 330C-54.8 357.7 -109.7 385.5 -155 374.2C-200.3 362.9 -236.2 312.5 -267.3 267.3C-298.4 222 -324.9 181.9 -333.5 138.1C-342.2 94.4 -333.1 47.2 -324 0L0 0Z" fill="#D1E4FD"></path></g><g transform="translate(0, 450)"><path d="M0 -370C56.8 -382.5 113.6 -395 155 -374.2C196.4 -353.4 222.3 -299.3 259.5 -259.5C296.7 -219.7 345 -194.3 370.5 -153.5C395.9 -112.6 398.5 -56.3 401 0L0 0Z" fill="#D1E4FD"></path></g></svg>